<?xml version="1.0" encoding="UTF-8"?>
<svg width="20px" height="16px" viewBox="0 0 20 16" version="1.1" xmlns="http://www.w3.org/2000/svg" xmlns:xlink="http://www.w3.org/1999/xlink">
    <title>Group 12</title>
    <defs>
        <polygon id="path-1" points="0 15.7857143 19.5677778 15.7857143 19.5677778 0.876714286 0 0.876714286"></polygon>
    </defs>
    <g id="Page-1" stroke="none" stroke-width="1" fill="none" fill-rule="evenodd">
        <g id="Group-12">
            <polygon id="Fill-1" fill="#020202" points="10 16 12 16 12 1 10 1"></polygon>
            <polygon id="Fill-2" fill="#FFFFFF" points="12 16 14 16 14 1 12 1"></polygon>
            <g id="Group-11">
                <path d="M10.1167778,12.6594143 C7.95233333,12.6569857 5.78788889,12.6557714 3.62233333,12.6582 C3.51455556,12.6582 3.469,12.6278429 3.43566667,12.5076286 C2.87344444,10.4494143 2.30677778,8.39241429 1.74122222,6.33541429 C1.73677778,6.31477143 1.73455556,6.29291429 1.72566667,6.2407 C2.45011111,6.62927143 3.15011111,7.0057 3.85011111,7.38212857 C3.95011111,7.43555714 4.049,7.4902 4.14788889,7.54241429 C4.47233333,7.71241429 4.72233333,7.65534286 4.95788889,7.35541429 C5.50344444,6.66205714 6.04788889,5.96627143 6.59344444,5.2717 C6.99233333,4.7617 7.39344444,4.25412857 7.789,3.74048571 C7.85677778,3.65305714 7.88788889,3.65548571 7.95455556,3.7417 C8.67455556,4.66334286 9.39566667,5.58134286 10.1167778,6.50177143 L10.1167778,4.46298571 C9.53233333,3.71862857 8.949,2.97184286 8.36344444,2.22748571 C8.07011111,1.85348571 7.67122222,1.85591429 7.37566667,2.23234286 C6.38788889,3.49034286 5.399,4.74834286 4.41455556,6.00998571 C4.339,6.10712857 4.28788889,6.13748571 4.169,6.07191429 C3.14344444,5.5097 2.11122222,4.95962857 1.08122222,4.40348571 C0.866777778,4.28691429 0.654555556,4.24198571 0.435666667,4.38648571 C0.150111111,4.57348571 0.0723333333,4.86491429 0.193444444,5.3057 C0.937888889,8.01234286 1.68344444,10.7189857 2.42788889,13.4244143 C2.53788889,13.8239143 2.74455556,13.9939143 3.12566667,13.9939143 L10.1167778,13.9939143 L10.1167778,12.6594143 Z" id="Fill-3" fill="#010101"></path>
                <path d="M10.1167778,12.6594143 C7.95233333,12.6569857 5.78788889,12.6557714 3.62233333,12.6582 C3.51455556,12.6582 3.469,12.6278429 3.43566667,12.5076286 C2.87344444,10.4494143 2.30677778,8.39241429 1.74122222,6.33541429 C1.73677778,6.31477143 1.73455556,6.29291429 1.72566667,6.2407 C2.45011111,6.62927143 3.15011111,7.0057 3.85011111,7.38212857 C3.95011111,7.43555714 4.049,7.4902 4.14788889,7.54241429 C4.47233333,7.71241429 4.72233333,7.65534286 4.95788889,7.35541429 C5.50344444,6.66205714 6.04788889,5.96627143 6.59344444,5.2717 C6.99233333,4.7617 7.39344444,4.25412857 7.789,3.74048571 C7.85677778,3.65305714 7.88788889,3.65548571 7.95455556,3.7417 C8.67455556,4.66334286 9.39566667,5.58134286 10.1167778,6.50177143 L10.1167778,4.46298571 C9.53233333,3.71862857 8.949,2.97184286 8.36344444,2.22748571 C8.07011111,1.85348571 7.67122222,1.85591429 7.37566667,2.23234286 C6.38788889,3.49034286 5.399,4.74834286 4.41455556,6.00998571 C4.339,6.10712857 4.28788889,6.13748571 4.169,6.07191429 C3.14344444,5.5097 2.11122222,4.95962857 1.08122222,4.40348571 C0.866777778,4.28691429 0.654555556,4.24198571 0.435666667,4.38648571 C0.150111111,4.57348571 0.0723333333,4.86491429 0.193444444,5.3057 C0.937888889,8.01234286 1.68344444,10.7189857 2.42788889,13.4244143 C2.53788889,13.8239143 2.74455556,13.9939143 3.12566667,13.9939143 L10.1167778,13.9939143 L10.1167778,12.6594143 Z" id="Stroke-5" stroke="#000000" stroke-width="0.25"></path>
                <mask id="mask-2" fill="white">
                    <use xlink:href="#path-1"></use>
                </mask>
                <g id="Clip-8"></g>
                <polygon id="Fill-7" fill="#020202" mask="url(#mask-2)" points="13.7644444 5.797 19.5677778 5.797 19.5677778 4.43578571 13.7644444 4.43578571"></polygon>
                <polygon id="Fill-9" fill="#020202" mask="url(#mask-2)" points="13.7644444 9.67057143 19.5677778 9.67057143 19.5677778 8.30935714 13.7644444 8.30935714"></polygon>
                <polygon id="Fill-10" fill="#020202" mask="url(#mask-2)" points="13.7644444 13.5429286 19.5677778 13.5429286 19.5677778 12.1817143 13.7644444 12.1817143"></polygon>
            </g>
        </g>
    </g>
</svg>