<?xml version="1.0" encoding="UTF-8"?>
<svg width="18px" height="21px" viewBox="0 0 18 21" version="1.1" xmlns="http://www.w3.org/2000/svg" xmlns:xlink="http://www.w3.org/1999/xlink">
    <title>Group 8</title>
    <defs>
        <polygon id="path-1" points="0 0.5 16.5589 0.5 16.5589 20 0 20"></polygon>
    </defs>
    <g id="Page-1" stroke="none" stroke-width="1" fill="none" fill-rule="evenodd">
        <g id="Group-8">
            <g id="Group-3" transform="translate(0.000000, 0.500000)">
                <mask id="mask-2" fill="white">
                    <use xlink:href="#path-1"></use>
                </mask>
                <g id="Clip-2"></g>
                <path d="M10.9609,20 L2.0489,20 C0.9189,20 -0.0001,19.081 -0.0001,17.951 L-0.0001,2.548 C-0.0001,1.419 0.9189,0.5 2.0489,0.5 L14.5099,0.5 C15.6399,0.5 16.5589,1.419 16.5589,2.548 L16.5589,9.136 L15.0589,8.136 L15.0589,2.548 C15.0589,2.246 14.8129,2 14.5099,2 L2.0489,2 C1.7459,2 1.4999,2.246 1.4999,2.548 L1.4999,17.951 C1.4999,18.254 1.7459,18.5 2.0489,18.5 L9.9609,18.5 L10.9609,20 Z" id="Fill-1" fill="#020202" mask="url(#mask-2)"></path>
            </g>
            <path d="M9.228,12.7397 C9.233,12.7677 9.234,12.7797 9.237,12.7907 C9.576,13.9027 9.915,15.0137 10.25,16.1267 C10.27,16.1917 10.297,16.2077 10.361,16.2077 C12.049,16.2057 13.736,16.2057 15.423,16.2087 C15.504,16.2087 15.536,16.1857 15.559,16.1097 C15.875,15.0607 16.195,14.0117 16.512,12.9627 C16.534,12.8937 16.564,12.8257 16.569,12.7437 C16.537,12.7587 16.513,12.7697 16.489,12.7817 C16.045,12.9967 15.603,13.2117 15.16,13.4267 C14.924,13.5417 14.791,13.5127 14.62,13.3147 C14.063,12.6737 13.506,12.0317 12.951,11.3887 C12.911,11.3427 12.892,11.3417 12.852,11.3887 C12.616,11.6657 12.376,11.9407 12.137,12.2157 C11.811,12.5917 11.486,12.9677 11.16,13.3427 C11.019,13.5047 10.87,13.5347 10.676,13.4437 C10.616,13.4147 10.557,13.3857 10.498,13.3567 C10.079,13.1537 9.661,12.9497 9.228,12.7397 L9.228,12.7397 Z M17.53,12.1567 C17.496,12.1707 17.499,12.2047 17.492,12.2317 C17.046,13.6947 16.601,15.1567 16.156,16.6197 C16.09,16.8377 15.968,16.9297 15.741,16.9297 L10.064,16.9297 C9.836,16.9297 9.713,16.8387 9.647,16.6217 C9.202,15.1597 8.757,13.6977 8.312,12.2347 C8.24,11.9967 8.286,11.8387 8.457,11.7377 C8.588,11.6597 8.715,11.6837 8.843,11.7467 C9.458,12.0477 10.075,12.3447 10.688,12.6487 C10.759,12.6837 10.79,12.6677 10.835,12.6147 C11.424,11.9337 12.014,11.2537 12.605,10.5727 C12.782,10.3697 13.02,10.3687 13.195,10.5707 C13.789,11.2527 14.381,11.9347 14.971,12.6197 C15.016,12.6717 15.046,12.6817 15.111,12.6497 C15.714,12.3517 16.322,12.0637 16.923,11.7617 C17.163,11.6417 17.407,11.6607 17.53,11.9757 L17.53,12.1567 Z" id="Fill-4" fill="#010101"></path>
            <path d="M9.228,12.7397 C9.233,12.7677 9.234,12.7797 9.237,12.7907 C9.576,13.9027 9.915,15.0137 10.25,16.1267 C10.27,16.1917 10.297,16.2077 10.361,16.2077 C12.049,16.2057 13.736,16.2057 15.423,16.2087 C15.504,16.2087 15.536,16.1857 15.559,16.1097 C15.875,15.0607 16.195,14.0117 16.512,12.9627 C16.534,12.8937 16.564,12.8257 16.569,12.7437 C16.537,12.7587 16.513,12.7697 16.489,12.7817 C16.045,12.9967 15.603,13.2117 15.16,13.4267 C14.924,13.5417 14.791,13.5127 14.62,13.3147 C14.063,12.6737 13.506,12.0317 12.951,11.3887 C12.911,11.3427 12.892,11.3417 12.852,11.3887 C12.616,11.6657 12.376,11.9407 12.137,12.2157 C11.811,12.5917 11.486,12.9677 11.16,13.3427 C11.019,13.5047 10.87,13.5347 10.676,13.4437 C10.616,13.4147 10.557,13.3857 10.498,13.3567 C10.079,13.1537 9.661,12.9497 9.228,12.7397 Z M17.53,12.1567 C17.496,12.1707 17.499,12.2047 17.492,12.2317 C17.046,13.6947 16.601,15.1567 16.156,16.6197 C16.09,16.8377 15.968,16.9297 15.741,16.9297 L10.064,16.9297 C9.836,16.9297 9.713,16.8387 9.647,16.6217 C9.202,15.1597 8.757,13.6977 8.312,12.2347 C8.24,11.9967 8.286,11.8387 8.457,11.7377 C8.588,11.6597 8.715,11.6837 8.843,11.7467 C9.458,12.0477 10.075,12.3447 10.688,12.6487 C10.759,12.6837 10.79,12.6677 10.835,12.6147 C11.424,11.9337 12.014,11.2537 12.605,10.5727 C12.782,10.3697 13.02,10.3687 13.195,10.5707 C13.789,11.2527 14.381,11.9347 14.971,12.6197 C15.016,12.6717 15.046,12.6817 15.111,12.6497 C15.714,12.3517 16.322,12.0637 16.923,11.7617 C17.163,11.6417 17.407,11.6607 17.53,11.9757 L17.53,12.1567 Z" id="Stroke-6" stroke="#000000" stroke-width="0.5"></path>
        </g>
    </g>
</svg>